<svg xmlns="http://www.w3.org/2000/svg" viewBox="0 0 2826.8 467.3"><defs><clipPath id="a"><path d="M113.7 0h2600v467.3h-2600z" style="fill:none"/></clipPath></defs><g style="clip-path:url(#a)"><path d="M2817.7 440.8c-223.2-12-446.5-20.7-669.7-31-337-15.5-673-40.3-1009.2-66.8-373-29.4-747.3-55.6-1121.6-54.2l9-167.4c373.9 20 748.2 30.7 1121.7 56 336.5 22.8 672.5 53.3 1009.2 73.4 223 13.3 446.2 23.5 669.7 22.6z" style="fill:#ffc934"/><path d="m822.7 158.4-83-4A2730 2730 0 0 1 826 235a1961 1961 0 0 0-95.5 79l83 5.3q46.8-40.8 95.6-79-42.3-42-86.5-81.9m167 8.8a7669 7669 0 0 0-83-4.6q44.2 40.6 86.4 83.6a2681 2681 0 0 0-95.6 78.6q41.6 2.7 83 5.8 47.2-39.9 95.6-78-42.3-43.7-86.4-85.4m166.9 10.8-83-5.5q44 42.5 86.4 86.7a3834 3834 0 0 0-95.5 78l83 6.5q47.3-39.4 95.5-77.7a4245 4245 0 0 0-86.4-88m167 11.8-83.1-6q43.7 44.2 86.4 89.3-48.1 38-95.5 77.2l83 6.5A9025 9025 0 0 1 1410 280a9205 9205 0 0 0-86.5-90.2m-834.8-46.7-83-3.6q43.5 39.1 86.4 78.8a1563 1563 0 0 0-95.5 78.2l83 3.7c31-27.6 62.6-53.3 95.6-78.4a5450 5450 0 0 0-86.5-78.7M322 135.9l-83-3.8q43.1 40.3 86.4 80.3c-32.5 25.5-64.8 51-95.5 78.7q41.5 1 83 2.4c30.7-27.6 62.9-53 95.5-78.3q-43.1-39.9-86.4-79.3M24.4 156.5l-5.3 97A4174 4174 0 0 1 74.5 206a4872 4872 0 0 1-50.1-49.5m631.4-6-83-3.6q43.7 38.8 86.4 78.9a1605 1605 0 0 0-95.5 78.7q41.4 2.1 83 4.6a1737 1737 0 0 1 95.5-79q-42.5-40.5-86.4-79.5m834.7 52-83-6.4q43.3 45.4 86.4 91.1-48 37.8-95.5 76l83 6.3 95.5-75.3q-43.3-45.8-86.4-91.8M155 128q-41.6-2-83-4.2 42.7 42.5 86.4 84a3056 3056 0 0 0-95.6 81q41.6 0 83 .6c31-27.6 63.3-53.6 95.6-79.5Q198 169.3 155 128m2337 139.5-83-3.4a1552 1552 0 0 0 86.5 85 4115 4115 0 0 1-95.5 72l83 3.6a3882 3882 0 0 0 95.5-73c-29.4-27.6-58.9-54.8-86.4-84.2m167 4.7-83-2c27.7 29 57.3 56 86.4 83.6a3774 3774 0 0 1-95.5 74.7l83 3.8q48.5-37.5 95.6-76.6c-28.9-27.8-58.5-54.8-86.5-83.5m167 1.2q-41.6.1-83-.1c26.1 26.2 53.2 51.4 79.6 77.4l4.1-76.5zm-9.1 167.4.8-.7 4.2-76.2q-43.5 37-88 72.5zm-825.6-200.4-83-5.5a2576 2576 0 0 0 86.4 90.9 4729 4729 0 0 1-95.5 71.9l83 4.2q48.3-35 95.5-71.2c-30-29.1-58.3-59.5-86.4-90.3m-333.9-25-83-6.5q42.9 46.5 86.4 92.2-47.6 37.4-95.5 74.5l83 5.9q48-36.6 95.6-73.7a5543 5543 0 0 1-86.5-92.4m167 13.2-83.1-6.5q42.5 46.7 86.5 92.2a6300 6300 0 0 1-95.6 72.9l83 5.4a4058 4058 0 0 0 95.6-72.2q-44.2-45-86.5-91.8m500.8 31.5-83-4.4c27.7 30.5 56.2 59.2 86.4 87.3q-47.3 36-95.6 70.7l83 3.6q48.3-34.9 95.6-71a1476 1476 0 0 1-86.4-86.2m-167-9.3-83-5a1730 1730 0 0 0 86.4 89.4q-47.2 36-95.5 70.8l83 3.8q48.3-34.6 95.6-70.5a1558 1558 0 0 1-86.5-88.5" style="fill:#1c1c1c"/><path d="M2819.3 411c-223.2-9-446.5-16.8-669.7-27.4C1438.6 350 731.4 259.2 18.8 259l5.9-108c374 15.2 748.2 27 1121.6 54.6 336.4 24.8 672.4 56.2 1009.2 76.9q334.4 20.5 669.7 20.7z" style="fill:#ffc934"/><path d="M772 233.4c-.4 5.4-5.3 9.5-11 9.2s-10.1-5-9.8-10.4 5.2-9.4 11-9.1 10 4.9 9.7 10.3m651.9 49.6a10 10 0 0 1-11 9.4 11 11 0 0 1-9.8-11.2 10 10 0 0 1 11-9.5c5.7.5 10.1 5.5 9.8 11.2m651.9 49.2c-.3 5.4-5.2 9.4-11 9.1s-10.1-4.9-9.8-10.3c.3-5.3 5.2-9.5 11-9.1 5.7.3 10 5 9.8 10.3" style="fill:#1c1c1c"/><path d="m849.6 259 15.9-35.4 8.4.5q6 18.7 11.7 37.3l-9.3-.6-2.7-9.6 4.6 2.4-20.5-1.4 4.6-1.3-3.5 8.7zm13.2-9.6-2.5-3.8 16 1-3 3.5L868 231l2.5.1zm25.2-6.3q.3-4.4 2-7.8a17 17 0 0 1 10.6-8.9A23 23 0 0 1 920 230l-5.1 6.4q-1.6-1.2-3.6-2-2-1-4.2-1-2.5-.2-4.8.9a9 9 0 0 0-3.7 3.4q-1.5 2.3-1.6 6a13 13 0 0 0 1 6.2 9 9 0 0 0 3.2 3.9q2.1 1.4 4.8 1.5 2.3.2 4.2-.5t3.8-1.9l4.7 7q-3 2-6 3c-3 1-4.3.7-6.8.6a20 20 0 0 1-13-6 18 18 0 0 1-3.8-6.3q-1.2-3.6-1-8.1Zm34.2 2.3q.3-4.5 2-7.9a17 17 0 0 1 10.6-9 22 22 0 0 1 19.4 3.7l-5.1 6.5q-1.6-1.2-3.6-2-2-1-4.2-1-2.6-.3-4.9.8a9 9 0 0 0-3.6 3.5 13 13 0 0 0-1.6 6q-.3 3.6.9 6.2a9 9 0 0 0 3.3 4q2.1 1.4 4.7 1.6 2.3 0 4.3-.5 2-.7 3.8-2l4.6 7.1q-3 2-6 3-3 .8-6.8.5t-7.1-1.8a18 18 0 0 1-9.6-10.6q-1.3-3.6-1-8.1Zm36.4 21.3 2-37 26.7 1.9-.4 7.4-17.9-1.3-.4 7.2 15.3 1.2-.4 7-15.3-1-.4 7.6L986 261l-.4 7.6zm31.8-1.7 4.6-7a21 21 0 0 0 11.5 5.4q1.8 0 3-.2 1.5-.4 2-1 .8-.8.8-1.5t-.5-1.7q-.5-.7-2-1.8-1.5-1-4.3-2.1a30 30 0 0 1-7.1-3.9 13 13 0 0 1-3.8-4.3 9 9 0 0 1 .9-10q1.8-2.3 5-3.5t8-.9a26 26 0 0 1 13.4 5l-4.3 6.5q-2.1-1.7-4.8-3-2.6-1.1-5.5-1.3a6 6 0 0 0-3.5.6q-1.3.7-1.4 1.8 0 .9.6 1.6t2 1.7l4 2a33 33 0 0 1 7.4 3.8q2.7 2.1 4 4.5a10 10 0 0 1 1 5q-.2 3-2 5.5-1.9 2.4-5.4 3.7t-8.8 1a31 31 0 0 1-14.8-5.9m34.4 2.6 4.6-6.9a21 21 0 0 0 11.6 5.3q1.8.1 3-.2 1.3-.3 2-1t.7-1.5q0-.7-.5-1.6t-2-1.8-4.3-2.2a30 30 0 0 1-7-3.8 13 13 0 0 1-3.9-4.4 9 9 0 0 1 1-10q1.7-2.3 5-3.5t7.9-.9a25 25 0 0 1 13.4 5l-4.2 6.5q-2.2-1.6-4.8-2.9-2.7-1.2-5.5-1.4a6 6 0 0 0-3.6.6q-1.2.7-1.3 1.9 0 .7.5 1.6c.5.9 1.1 1 2 1.6l4 2a33 33 0 0 1 7.4 3.9q2.8 2.1 4 4.4a10 10 0 0 1 1 5.1q-.2 3-2 5.5t-5.4 3.7-8.8 1q-2.6-.3-5.1-1a30 30 0 0 1-9.7-5m49-10.9q.3-4.5 2-8a17 17 0 0 1 10.6-9q3.5-1 7.2-.7a22 22 0 0 1 12.2 4.7l-5.1 6.5q-1.6-1.3-3.6-2.2-2-.8-4.2-1-2.6-.3-4.8.8a9 9 0 0 0-3.7 3.5q-1.5 2.4-1.6 6-.2 3.9 1 6.4a9 9 0 0 0 8 5.7q2.3.2 4.2-.5t3.8-1.9l4.7 7.2q-3 2-6 2.9c-3 .9-4.4.8-6.8.6a20 20 0 0 1-13-6.3q-2.6-2.8-3.8-6.5a21 21 0 0 1-1-8.2Zm34.2 2.7q.3-4.5 1.8-8a17 17 0 0 1 17.2-9.8q3.8.3 6.9 1.9a18 18 0 0 1 9 10.6q1.2 3.6 1 8.2a22 22 0 0 1-2 8q-1.5 3.5-4.1 5.8a16 16 0 0 1-6 3.5q-3.2 1-6.9.8a18 18 0 0 1-12.4-6.3q-2.4-2.7-3.6-6.4-1.1-3.8-1-8.3Zm9 .7q-.2 3 .3 5.2.6 2.1 1.7 3.7t2.8 2.5a9 9 0 0 0 7 .5q1.8-.5 3-2 1.4-1.2 2.2-3.4.7-2.1 1-5 0-3-.5-5.2a11 11 0 0 0-1.7-3.8q-1.1-1.5-2.7-2.3a9 9 0 0 0-7.1-.6q-1.8.5-3 2-1.3 1.3-2.1 3.4t-1 5Zm32.4 21.6 2-37.5 11.3.9 13.3 31.2-1.8.2 1.7-30.3 7.9.6-2 37.5-10.7-.8-13.8-32.7 1.7-.2-1.7 31.7zm39.4-26.9.5-7.6 29.4 2.4-.5 7.6-10.3-.9-1.6 30-8.8-.6 1.6-30zm33.2 32.9 2.1-37.6 14.4 1.1q4 .4 7.1 2.1t4.8 4.7a12 12 0 0 1 1.5 6.9q-.2 3.8-2.3 6.4a12 12 0 0 1-5.6 3.7l7.6 15.2-9.7-.8-6.1-13.8-4.2-.4-.7 13.2zm10-19.6 4.7.4a7 7 0 0 0 4.4-.8q1.8-1.1 1.9-3.6 0-2.6-1.4-3.8-1.6-1.4-4.3-1.6l-4.8-.4zm24.5 3.4q.3-4.5 1.9-8a17 17 0 0 1 10.1-9.1 19 19 0 0 1 13.9 1.1 18 18 0 0 1 9 10.7q1.3 3.8 1 8.3t-1.8 8.1q-1.7 3.6-4.2 5.9a17 17 0 0 1-13 4.2 19 19 0 0 1-12.4-6.4q-2.3-2.7-3.5-6.4a23 23 0 0 1-1-8.4m9 .8q-.2 3 .4 5.2t1.7 3.8 2.7 2.4a9 9 0 0 0 7.1.6q1.6-.5 3-2 1.4-1.2 2-3.4 1-2.2 1-5.1.3-3-.4-5.2-.5-2.3-1.7-3.8-1-1.6-2.7-2.4a9 9 0 0 0-3.5-1q-2-.2-3.6.4-1.6.5-3 2-1.2 1.3-2 3.4-1 2.1-1 5M1298 294l2-37.7 8.8.7-1.6 30c6.7.6 10.1 1 17 1.5l-.5 7.7zm206.7 17.4 15.8-36.5 8.5.7 11.7 38.7-9.3-.7-2.7-9.7 4.6 2.4-20.5-1.7 4.5-1.3c-1.4 3.6-2 5.3-3.5 8.8zm13.2-9.6-2.5-4 16 1.4-3 3.5-5.4-20 2.5.2zm25.2-6.1q.3-4.5 2-8a18 18 0 0 1 17.9-10 22 22 0 0 1 12.1 5l-5.1 6.6a18 18 0 0 0-3.6-2.2q-2-1-4.2-1.1-2.5-.3-4.8.8a9 9 0 0 0-3.7 3.5q-1.5 2.4-1.6 6.2t1 6.3a9 9 0 0 0 8 5.7q2.3.2 4.2-.5t3.8-1.8l4.7 7.1q-3 2-6 2.8-3 .9-6.8.6a20 20 0 0 1-13-6.3q-2.5-2.7-3.8-6.4a21 21 0 0 1-1-8.3Zm34.2 2.9q.3-4.6 2-8a18 18 0 0 1 17.8-10 22 22 0 0 1 12.2 5l-5.1 6.5a18 18 0 0 0-3.6-2.2q-2-1-4.2-1-2.6-.3-4.9.8a9 9 0 0 0-3.6 3.4q-1.4 2.4-1.7 6.2-.2 3.8 1 6.3a9 9 0 0 0 8 5.7q2.3.2 4.3-.5a15 15 0 0 0 3.7-1.8l4.7 7a20 20 0 0 1-12.8 3.4 20 20 0 0 1-13-6.2q-2.4-2.7-3.7-6.4t-1-8.3Zm36.4 21.7 2-37.5 26.7 2.3-.4 7.6-17.9-1.5-.4 7.4 15.3 1.3-.4 7.1-15.3-1.2-.4 7.7 18.1 1.4-.4 7.6zm31.8-1.4 4.6-6.8a21 21 0 0 0 11.5 5.3 9 9 0 0 0 3-.2q1.4-.4 2-1t.8-1.5q0-.7-.5-1.6t-2-1.9a25 25 0 0 0-4.3-2.1q-4.5-1.8-7.1-4a13 13 0 0 1-3.8-4.3 10 10 0 0 1 .9-10.2q1.8-2.4 5-3.6t8-.9q3.7.3 7.3 1.8 3.7 1.5 6 3.5l-4.2 6.6q-2.1-1.8-4.8-3a16 16 0 0 0-5.5-1.5q-2.3-.2-3.5.6-1.3.7-1.3 2 0 .7.5 1.5t2 1.7l4 2q4.7 2 7.4 4 2.7 2.1 4 4.4a10 10 0 0 1-1 10.4q-1.9 2.4-5.4 3.7t-8.8.9a25 25 0 0 1-10.1-3q-2.4-1.2-4.7-2.8m34.5 2.7 4.5-6.8a21 21 0 0 0 11.6 5.3q1.8.1 3-.2 1.3-.3 2-1t.7-1.5q0-.7-.5-1.6-.5-.7-2-1.8a25 25 0 0 0-4.3-2.1q-4.5-1.8-7-4a13 13 0 0 1-3.9-4.3 10 10 0 0 1 1-10.1q1.7-2.4 5-3.7a18 18 0 0 1 7.9-.8 25 25 0 0 1 13.4 5.2l-4.2 6.6q-2.2-1.8-4.8-3a16 16 0 0 0-5.5-1.5 6 6 0 0 0-3.6.6q-1.2.8-1.3 2 0 .7.6 1.6a7 7 0 0 0 2 1.6l4 2q4.5 2 7.3 4t4 4.4a10 10 0 0 1-1 10.4q-1.8 2.4-5.4 3.7-3.5 1.2-8.8.8a25 25 0 0 1-10-3 35 35 0 0 1-4.7-2.8m49-10.7q0-4.5 1.9-8a17 17 0 0 1 10.6-9q3.5-1.2 7.2-.8a22 22 0 0 1 12.2 4.8l-5.1 6.5q-1.6-1.3-3.6-2.1-2-1-4.2-1.1-2.6-.3-4.8.8a9 9 0 0 0-3.7 3.5q-1.5 2.4-1.6 6.1-.3 3.8 1 6.3a9 9 0 0 0 3.2 4q2.1 1.3 4.8 1.5 2.3.3 4.2-.4a15 15 0 0 0 3.8-1.9l4.6 7q-2.9 2-6 2.8-3 .8-6.8.5a20 20 0 0 1-13-6 18 18 0 0 1-3.7-6.3q-1.3-3.7-1-8.2m34 2.7q.3-4.5 2-8 1.5-3.4 4.1-5.7t6-3.4a19 19 0 0 1 19.4 5.4q2.3 2.6 3.5 6.3t1 8.1c-.2 4.4-.8 5.7-1.9 8a17 17 0 0 1-17 9.7 19 19 0 0 1-7-1.9 17 17 0 0 1-9-10.4q-1.3-3.6-1-8.1Zm9 .7q-.1 3 .4 5 .6 2.3 1.7 3.8t2.8 2.4q1.5.7 3.5 1a9 9 0 0 0 3.6-.5q1.6-.5 3-2 1.2-1.3 2-3.3t1-5-.4-5.1-1.7-3.8-2.7-2.4a9 9 0 0 0-7.2-.5q-1.5.6-3 2-1.2 1.3-2 3.4t-1 5m32.5 20.9 2-37 11.3 1 13.3 30.7-1.8.3 1.7-30 7.9.6-2 36.8-10.7-.8q-7-15.9-13.8-31.9l1.7-.2-1.7 31zm39.5-26.4.4-7.6 29.4 2.2-.5 7.6-10.3-.8-1.6 29.2-8.8-.6 1.7-29.2zm33.2 31.7 2-36.7 14.4 1q4 .5 7.1 2 3 1.8 4.8 4.7t1.5 6.7-2.3 6.3a12 12 0 0 1-5.6 3.7l7.6 14.3-9.7-.6-6.1-13-4.2-.3-.7 12.6zm9.9-18.8 4.7.3q2.7.2 4.4-.9 1.8-1 1.9-3.5t-1.4-3.7q-1.6-1.3-4.3-1.5l-4.8-.3zm24.5 3q.3-4.5 1.9-7.9a17 17 0 0 1 17.1-10 19 19 0 0 1 12.4 6q2.3 2.6 3.5 6.2 1.3 3.5 1 8t-1.9 7.7a17 17 0 0 1-10 9 19 19 0 0 1-19.5-5 17 17 0 0 1-3.5-6 21 21 0 0 1-1-8m9 .6q-.2 2.7.4 5 .6 2.1 1.7 3.6 1 1.5 2.7 2.2 1.5.9 3.5 1t3.6-.5 3-2q1.3-1.3 2-3.3 1-2 1-4.9a16 16 0 0 0-.4-5q-.5-2.1-1.7-3.7-1-1.4-2.7-2.3-1.5-.7-3.5-1a9 9 0 0 0-3.6.5q-1.6.5-3 2-1.2 1.3-2 3.4-1 2-1 5m32.4 20 2.1-36.1 8.8.6-1.7 28.8 17 1-.4 7.2zm203.3 11.1q8-17 15.8-34.2l8.5.5 11.7 35.5-9.4-.5-2.6-8.8 4.5 2-20.5-1 4.6-1.2-3.5 8.2zm13.2-9.1-2.5-3.6 16 .8-3 3.3-5.5-18.3h2.6zm25.2-6.3q.2-4.3 2-7.6a17 17 0 0 1 10.6-8.7q3.5-1.1 7.2-1a23 23 0 0 1 12.2 4.3l-5.2 6.2a18 18 0 0 0-3.5-2q-2-.6-4.2-.8a10 10 0 0 0-4.9 1 9 9 0 0 0-3.6 3.3 12 12 0 0 0-1.7 5.7q-.2 3.5 1 5.8a8 8 0 0 0 3.3 3.7q2.1 1.2 4.7 1.3 2.3.2 4.3-.5a16 16 0 0 0 3.7-1.8l4.7 6.4q-3 1.8-6 2.7t-6.8.7-7.1-1.5a18 18 0 0 1-5.8-3.8 16 16 0 0 1-3.8-5.8q-1.5-3.4-1-7.7Zm34.2 1.6q.2-4.2 1.9-7.5t4.4-5.5a19 19 0 0 1 6.2-3.3q3.4-1 7.3-.9a23 23 0 0 1 12.2 4.2l-5.2 6.2q-1.6-1.2-3.6-1.9t-4.1-.9a10 10 0 0 0-5 1 9 9 0 0 0-3.6 3.3q-1.5 2.2-1.6 5.7c-.1 3.5.2 4.3 1 5.8a8 8 0 0 0 3.2 3.6q2.1 1.3 4.8 1.4 2.3 0 4.2-.6a16 16 0 0 0 3.8-1.8l4.7 6.4q-3 2-6 2.8t-6.8.7-7.2-1.6q-3.3-1.3-5.8-3.8a16 16 0 0 1-3.8-5.7q-1.2-3.4-1-7.6m36.4 18.9 2-34.6 26.6 1.2-.4 7-17.8-.7-.4 6.8 15.2.7-.4 6.6-15.2-.6-.4 7 18 .8-.3 7zm31.7-2.3 4.6-6.4a20 20 0 0 0 11.6 4.5q1.8 0 3-.3 1.3-.3 2-1 .7-.5.7-1.4 0-.6-.5-1.4t-2-1.7a25 25 0 0 0-4.3-1.8q-4.5-1.5-7-3.4-2.7-1.8-3.9-4-1-2-1-4.3.2-2.7 2-5 1.7-2.3 5-3.5t7.9-1a26 26 0 0 1 13.4 4.3l-4.2 6.2q-2.2-1.5-4.8-2.6-2.7-1-5.5-1.1-2.3-.1-3.6.6-1.3.8-1.3 1.8 0 .8.6 1.5.5.8 2 1.5l4 1.7q4.5 1.5 7.3 3.4a12 12 0 0 1 4 4q1.2 2.1 1 4.7a9 9 0 0 1-2 5 12 12 0 0 1-5.4 3.5 26 26 0 0 1-18.9-1.4q-2.3-.9-4.7-2.4m34.5 1.5 4.6-6.5a20 20 0 0 0 11.5 4.5q1.8 0 3-.2 1.4-.4 2-1t.8-1.4q0-.7-.5-1.5-.6-.7-2-1.6a25 25 0 0 0-4.3-1.9q-4.5-1.5-7.1-3.3-2.7-2-3.8-4-1.2-2-1-4.4 0-2.7 1.9-5t5-3.5q3.3-1.2 8-1a26 26 0 0 1 13.4 4.3l-4.3 6.2q-2.1-1.5-4.8-2.6-2.6-1-5.5-1.1-2.3 0-3.5.6-1.3.9-1.3 1.9 0 .8.5 1.4.6.7 2 1.5l4 1.7q4.7 1.6 7.4 3.4a12 12 0 0 1 4 4q1 2.1 1 4.7a9 9 0 0 1-2 5 12 12 0 0 1-5.4 3.5q-3.6 1.4-8.8 1.1a26 26 0 0 1-10.1-2.4q-2.4-1-4.7-2.5Zm49-11.7q.2-4 2-7.4 1.5-3.3 4.4-5.5 2.7-2.2 6.2-3.3 3.4-1.1 7.2-1a23 23 0 0 1 12.2 4l-5.2 6.3q-1.6-1.2-3.5-1.9a13 13 0 0 0-4.2-.8q-2.7-.1-4.9 1a9 9 0 0 0-3.6 3.3 12 12 0 0 0-1.7 5.7q-.2 3.5 1 5.8a8 8 0 0 0 3.2 3.6q2.2 1.3 4.8 1.3 2.3 0 4.3-.6t3.7-1.8l4.7 6.3q-3 2-6 2.8-3 1-6.8.8t-7.1-1.5-5.9-3.7-3.7-5.8q-1.5-3.3-1.1-7.5Zm34.1 1.4q.3-4.2 1.9-7.5a17 17 0 0 1 10.1-8.9 20 20 0 0 1 14 .5q3 1.4 5.4 3.8a16 16 0 0 1 3.5 5.7q1.3 3.4 1 7.7-.3 4.2-1.8 7.4a17 17 0 0 1-10.2 8.8q-3.3 1-7 1-3.6-.2-6.9-1.5-3.1-1.3-5.5-3.7a16 16 0 0 1-3.5-5.8q-1.2-3.3-1-7.5m9 .3q-.2 2.7.4 4.7t1.7 3.5 2.7 2 3.5.8q2 .1 3.6-.5t3-1.9 2.1-3.3 1-4.7q.1-2.7-.4-4.7t-1.7-3.4q-1.2-1.5-2.8-2.2-1.5-.6-3.5-.7-2-.2-3.6.5t-3 1.9q-1.2 1.4-2 3.3-1 2-1 4.7m32.4 18.5 2.1-34.8 11.3.4 13.2 28.4-1.7.3 1.6-28.3 8 .3-2.1 34.8-10.7-.3-13.8-29.6c.7 0 1-.1 1.8-.3l-1.7 29.4zm39.5-26.4.4-7.2 29.4 1-.4 7-10.3-.2-1.6 27.8-8.8-.3 1.6-27.8zm33.3 28.9 2-35 14.4.4q4 0 7 1.6c3 1.6 3.7 2.4 4.9 4.2q1.6 2.8 1.5 6.4a10 10 0 0 1-2.4 6 13 13 0 0 1-5.5 3.8l7.6 13.6-9.7-.3-6.1-12.4-4.3-.1-.7 12.1c-3.5 0-5.2-.1-8.7-.3m9.8-18.4 4.8.1q2.7 0 4.4-1t1.9-3.4q0-2.4-1.5-3.5-1.6-1.2-4.3-1.3l-4.7-.1zm24.6 2q.3-4.3 1.8-7.7a17 17 0 0 1 10.2-9 20 20 0 0 1 13.9.3q3 1.4 5.5 3.8a16 16 0 0 1 3.5 5.9q1.2 3.3 1 7.7-.3 4.3-1.9 7.7a17 17 0 0 1-10.1 9 19 19 0 0 1-19.4-4.2 16 16 0 0 1-3.6-5.8q-1.1-3.5-1-7.7m9 .2q-.2 2.8.3 4.9.6 2 1.7 3.4 1.2 1.5 2.7 2.2 1.7.7 3.6.7t3.6-.5q1.6-.6 3-2 1.2-1.3 2-3.3.9-2.1 1-4.8a15 15 0 0 0-.4-4.9q-.6-2-1.7-3.5a7 7 0 0 0-2.7-2.1q-1.6-.7-3.6-.8-1.8 0-3.6.6-1.5.5-3 2-1.2 1.3-2 3.4t-1 4.8Zm32.5 18.7 2-35.5 8.8.2-1.6 28.4 17 .5-.4 7.2zM184.5 230.7q7.8-18 15.8-35.6l8.4.2q6 18 11.7 36.1l-9.3-.2-2.7-9.1 4.6 2-20.5-.4 4.6-1.5-3.5 8.6zm13.2-10-2.5-3.6 15.9.4-3 3.5-5.4-18.7 2.5.1zm25.2-7.2q.2-4.3 2-7.7a18 18 0 0 1 10.5-9q3.5-1.3 7.3-1.1a23 23 0 0 1 12.2 4l-5.2 6.4q-1.6-1.2-3.6-2-1.8-.6-4.1-.7a10 10 0 0 0-4.9 1 9 9 0 0 0-3.7 3.5q-1.5 2.3-1.6 5.9a12 12 0 0 0 1 6 8 8 0 0 0 3.2 3.6q2.2 1.3 4.8 1.3 2.3 0 4.2-.7t3.8-2l4.7 6.6q-3 2-6 3a21 21 0 0 1-19.8-4.3q-2.4-2.5-3.7-6-1.5-3.3-1.1-7.7Zm34.1.9q.3-4.2 2-7.6t4.4-5.6a19 19 0 0 1 13.4-4.5 22 22 0 0 1 12.2 4l-5 6.3q-1.6-1-3.6-1.8t-4.2-.8q-2.5-.1-4.8 1a9 9 0 0 0-3.7 3.4q-1.5 2.4-1.6 5.9a12 12 0 0 0 1 6 8 8 0 0 0 3.2 3.6q2.1 1.2 4.8 1.3 2.3 0 4.2-.7t3.8-2l4.7 6.6a21 21 0 0 1-12.8 3.8q-3.9 0-7.2-1.4T262 228t-3.8-6q-1.3-3.3-1-7.7Zm36.5 18.8 2-35.3 26.6.9-.4 7-17.8-.5-.4 7 15.2.4-.4 6.7-15.2-.4-.4 7.2 18 .5-.4 7.2zm31.7-3 4.6-6.6a20 20 0 0 0 11.5 4.5q2 0 3.1-.4 1.3-.3 2-1t.7-1.4-.5-1.5-2-1.7l-4.3-1.8q-4.5-1.5-7-3.3-2.8-2-3.9-4-1-2.1-1-4.4a9 9 0 0 1 2-5q1.6-2.3 5-3.6 3.2-1.2 7.9-1.1a26 26 0 0 1 13.4 4.2l-4.3 6.3q-2.1-1.5-4.8-2.6-2.6-1-5.4-1.1-2.4 0-3.6.7-1.2.8-1.3 1.8 0 .8.5 1.5.5.8 2 1.5l4 1.7q4.7 1.5 7.4 3.4a12 12 0 0 1 4 4q1 2.1 1 4.7a9 9 0 0 1-2 5.1q-1.8 2.4-5.4 3.8T340 235a25 25 0 0 1-10-2.4q-2.6-1-4.8-2.5m34.5 1.2 4.5-6.7a20 20 0 0 0 11.6 4.5q1.8 0 3-.3 1.4-.3 2-1t.7-1.4-.4-1.5-2-1.7a25 25 0 0 0-4.4-1.8q-4.4-1.5-7-3.3-2.7-1.8-3.8-4-1.2-2-1-4.4 0-2.7 1.9-5 1.7-2.3 5-3.5t8-1.1a26 26 0 0 1 13.4 4.2l-4.3 6.3a22 22 0 0 0-4.8-2.6q-2.7-1-5.5-1.1-2.2 0-3.6.7-1.2.7-1.3 1.8 0 .7.6 1.5t2 1.5l4 1.6q4.5 1.5 7.4 3.4a12 12 0 0 1 3.9 4q1.2 2.1 1 4.7a9 9 0 0 1-2 5.1q-1.8 2.4-5.3 3.7-3.6 1.4-8.9 1.2a25 25 0 0 1-10-2.3q-2.4-1.1-4.7-2.5m48.9-12.2q.3-4.2 2-7.5a17 17 0 0 1 4.4-5.4q2.9-2.2 6.2-3.3t7.3-1a23 23 0 0 1 12.1 4l-5.1 6.2q-1.6-1.2-3.6-1.9-1.9-.8-4.1-.8-2.6-.1-5 1a9 9 0 0 0-3.6 3.3q-1.5 2.3-1.6 5.7c-.1 3.4.2 4.3 1 5.9a8 8 0 0 0 3.2 3.6q2.1 1.2 4.8 1.4 2.2 0 4.2-.7t3.8-1.8l4.7 6.4q-3 2-6 2.9-3 1-6.8.8-3.9-.1-7.2-1.5t-5.8-3.8q-2.4-2.4-3.8-5.8t-1-7.7Zm34.2 1.3q.3-4.3 1.9-7.5a17 17 0 0 1 10.1-8.8 20 20 0 0 1 19.4 4.3q2.3 2.4 3.5 5.8a19 19 0 0 1 1 7.5q-.3 4.3-1.9 7.6a17 17 0 0 1-10 8.8 19 19 0 0 1-14-.5q-3.2-1.4-5.5-3.8a16 16 0 0 1-3.5-5.8q-1.2-3.4-1-7.6m9 .3q-.2 2.7.4 4.8.5 2 1.7 3.4 1 1.5 2.7 2.2 1.5.6 3.5.8 2 0 3.6-.6t3-1.9q1.2-1.3 2-3.3a15 15 0 0 0 1-4.7q.3-2.7-.4-4.8-.5-2-1.7-3.4-1-1.5-2.7-2-1.5-.8-3.5-.9t-3.6.5-3 2q-1.4 1.2-2 3.2-1 2-1 4.7m32.4 18.8 2-34.8 11.3.5q6.8 14.1 13.3 28.4l-1.8.2 1.7-28 7.9.2-2 34.8-10.7-.5-13.8-29.6 1.8-.3-1.8 29.4zm39.5-26.2.4-7 29.4 1.2-.4 7-10.3-.4-1.7 27.7-8.8-.3 1.7-27.8zm33.3 29.2 2-34.7 14.3.6q4 .2 7.1 1.7 3.2 1.5 4.8 4.2 1.8 2.6 1.5 6.2-.1 3.6-2.3 6a13 13 0 0 1-5.5 3.6l7.6 13.8-9.7-.5-6.2-12.5c-1.7 0-2.5 0-4.2-.2l-.7 12.2zm9.8-18.3 4.8.2q2.7.1 4.4-1 1.6-.9 1.8-3.3.1-2.3-1.4-3.5-1.5-1.1-4.3-1.3c-1.9 0-2.9 0-4.8-.2zm24.6 2.4q.1-4.3 1.8-7.5a16 16 0 0 1 10.1-8.7q3.4-1.1 7-1 3.7.3 7 1.6 3 1.4 5.4 3.8a16 16 0 0 1 3.6 5.8q1.1 3.4 1 7.7-.3 4.2-2 7.5a17 17 0 0 1-10 8.9 19 19 0 0 1-13.9-.7 17 17 0 0 1-10-17.4m8.9.4q-.2 2.7.4 4.8t1.7 3.4 2.7 2.2 3.5.8q2 .2 3.6-.4 1.8-.6 3-2 1.3-1.3 2.1-3.3t1-4.7-.4-4.8-1.7-3.4-2.7-2.2-3.6-.8-3.6.5-3 1.9-2 3.3-1 4.7m32.5 19.2 2-35 8.8.4-1.6 27.8 17 1-.5 7.1z"/><path d="M2734 248c-215.9 29.9-433.5 45-651.1 55.4C1757 319 1430.9 320 1105 332c-364.6 13.2-728 46.9-1092.3 67.5l-10-178.7c361.4-50.1 728-62.7 1092.4-70 326.3-6.7 652-15.8 977.7-37.8 217-14.7 434-31.5 651.2-43.8z" style="opacity:.4"/><path d="M2809.4 186.5a6792 6792 0 0 1-669 71.6c-335.7 20.5-672 23.9-1008 39.8C758 315.7 385.5 359.4 11.8 386.6L0 219.4c370.7-60 745.5-80.5 1120.4-91.7 336.6-10 672.5-22 1008-51 223-19.1 445.8-41.2 669-57.4z" style="fill:#ffc934"/><path d="m795.6 140.6-83 4.6c33.7 24.8 65.3 51.3 96.9 78.8q-43.5 49.7-85 101.3l83-6.8q41.2-50.9 85-99.5a1927 1927 0 0 0-97-78.4m166.7-8q-41.4 1.6-83 3.7 49.6 38 97 78.8a2095 2095 0 0 0-85 96.7q41.5-3.2 83-5.6 41.2-48.1 85-94-47.8-40.8-97-79.5m166.8-5.2-83 2.5q49.1 39 97 79.6-43.6 45-85 92l83-4q41.5-46 84.9-90.3a4058 4058 0 0 0-97-79.8m166.8-5-83 2.6q48.9 39.4 96.9 80.1-43 43.8-85 88.7l83-3.4q42-43.9 85-87.2a8121 8121 0 0 0-97-80.8m-833.8 40a8538 8538 0 0 0-83 7.3c34.3 24 65.4 53.3 96.9 81q-42.8 51.8-85 104.2l83-7.5Q516 294.8 559 243c-31.6-27.8-62.6-56.4-97-80.6m-166.8 15.8q-41.5 4.4-83 9.7 49.1 39 97 79.7l-85 102 83-7.3q42.4-51.8 84.9-103.4c-31.7-27.5-63.3-55.7-96.9-80.8ZM2.5 254.3l7 97q24.8-27.3 49.2-55a2314 2314 0 0 0-56.2-42m626.3-104-83 5.6c34.3 24.5 65.4 52.3 97 80q-43.2 51.5-85 104l83-7.4q41.6-52.1 84.9-102.8c-31.5-27.7-63-54.7-96.9-79.4m833.8-33.4q-41.4 1.5-83 2.8 48.7 40.6 97 81.6l-85 86 83-2.7q42.6-42.5 84.9-85.3-48.4-41.3-96.9-82.4m-1334 82.7q-41.6 6-83 12.5 49.3 36 96.9 74.3-41.8 49-85 96.8 41.6-3.1 83-6.6a8069 8069 0 0 0 85-99.8q-47.7-39.4-97-77.2M2463.1 47l-83 7.4q47.7 44 96.9 86.4c-27.6 33.2-54.2 68.4-85 98.8q41.6-3.6 83-7.8c30.3-31.3 57-66.7 85-100q-49.3-41.6-97-84.8Zm166.7-14.6-83 7.2q47.6 42.2 97 82.6c-28.4 33.4-56.4 67.2-85 100.5q41.5-5 83-10.9 42-50 84.9-99.4-49.4-39-96.9-80m166.8-13-83 6.2q43.8 36.5 89.3 71l-5.5-76.6zm12 167.2.7-.9-5.5-76a5565 5565 0 0 0-78.2 90q41.5-6.4 83-13.1m-845.8-96-83 6.3q48 43.8 96.9 86.4a1872 1872 0 0 1-85 88.1l83-4.1a1494 1494 0 0 0 85-89.4q-49-43.2-97-87.4m-333.5 19.6-83 3.5q48.4 41.8 96.9 83.4-42 42.9-85 85l83-2.5q43.2-41.9 85-85a11422 11422 0 0 1-97-84.4m166.7-8.3q-41.4 2.3-83 4.3 48 43.2 97 85.4a2815 2815 0 0 1-85 85.5l83-2.6q43.7-42 84.9-86.4-49.1-42.3-96.9-86.2m500.3-40-83 7.5q47.9 44.7 97 88c-27.4 32.8-54.3 65.5-85 95.2l83-6c30.7-30.1 57.5-64.1 84.9-97.2a4334 4334 0 0 1-96.9-87.4m-166.8 14.8-83 7q48 44.5 97 88c-27.2 31.8-54.9 62-85 91.1q41.6-2.2 83-4.8c30.4-29.3 57.7-60.7 85-93q-49.1-43.5-97-88.3" style="fill:#1c1c1c"/><path d="M2807.3 156.8c-221.8 32.9-445 60.7-669 73.8-335.8 19.5-672 22.2-1008 35.4C755.4 280.7 383 322.7 9.7 356.6L2.1 249c199-29.5 398.6-53.6 599.2-69 173.3-13.2 347.4-18.9 521.2-23.7 336.5-9.3 672.5-16.7 1008.1-44.8 223.2-18.7 446-42 669-62.3z" style="fill:#ffc934"/><path d="M755.6 229.4c.4 6.2-4 11.7-9.6 12.1-5.8.4-10.8-4.4-11.2-10.7s4-11.7 9.7-12c5.7-.5 10.7 4.3 11 10.5m651.2-24.8c.4 5.8-3.9 10.5-9.6 10.7s-10.7-4.4-11.1-10.2 3.9-10.5 9.6-10.7 10.7 4.5 11.1 10.2m651.2-24.7c.4 6.3-4 11.6-9.6 12s-10.7-4.3-11.2-10.6 4-11.6 9.7-12 10.7 4.4 11.1 10.6" style="fill:#1c1c1c"/><path d="M836 247.7q5.3-20.8 11-41.5l8.4-.5 16.5 39.6-9.3.6-3.9-10.1c2 .7 2.9 1.1 4.8 2L843 239l4.4-2-2.4 10zm11.8-12.5-3-3.8 15.9-1-2.4 4.1-8-20.4 2.6-.2zm24.1-10.3q-.4-4.9.9-8.9 1.2-3.9 3.7-6.6a17 17 0 0 1 12.7-6.2 21 21 0 0 1 12.7 3.4l-4.3 7.6a18 18 0 0 0-3.8-1.8q-2-.7-4.3-.6-2.6.1-4.7 1.6a9 9 0 0 0-3.2 4.2q-1 2.7-.8 6.8.3 4 1.7 6.6 1.5 2.6 3.8 3.9a9 9 0 0 0 5 1 10 10 0 0 0 4-1.1 15 15 0 0 0 3.5-2.6l5.6 7q-2.7 2.5-5.6 4a18.4 18.4 0 0 1-24.8-9.6 24 24 0 0 1-2.1-8.7M906 223q-.3-5 1-8.8 1.2-3.9 3.6-6.6a18 18 0 0 1 12.8-6 21 21 0 0 1 12.6 3.3l-4.3 7.5q-1.7-1.1-3.8-1.8t-4.2-.6a9 9 0 0 0-4.7 1.6 9 9 0 0 0-3.2 4.1q-1 2.7-.8 6.7t1.7 6.6 3.7 3.8q2.4 1.3 5 1 2.1 0 4-1 2-1 3.6-2.6l5.5 7a18 18 0 0 1-12.2 5.4 19 19 0 0 1-18.2-11 24 24 0 0 1-2-8.7Zm38.8 18-2.7-39.6 26.6-1 .5 7.8-17.8.7.5 7.8 15.3-.6.5 7.5-15.2.6.5 8.2 18.1-.7.5 8.1zm31.2-5.7 3.6-7.8q2.6 2 5.9 3.1 3.2 1.3 6.3 1 1.8 0 3-.5t1.8-1.3.5-1.7q0-.7-.7-1.6a7 7 0 0 0-2.2-1.7q-1.6-.9-4.5-1.8-4.6-1.4-7.5-3.2t-4.3-4.2a10.4 10.4 0 0 1 4-14.9q3.2-1.6 7.8-1.8a24 24 0 0 1 14 3.7l-3.4 7.3q-2.4-1.6-5.2-2.5-2.7-1-5.6-.9-2.2.1-3.4 1t-1 2.2q0 .9.7 1.6t2.2 1.5 4.2 1.6q4.8 1.4 7.8 3.3t4.4 4.1a11 11 0 0 1-4.4 15.8q-3.4 2-8.6 2-2.7.2-5.2-.3a29 29 0 0 1-10.2-4m34.4-1.3 3.7-7.9q2.5 2 5.8 3.2t6.3 1q1.8 0 3-.5t1.8-1.3.5-1.7q0-.7-.7-1.6a7 7 0 0 0-2.2-1.7q-1.5-.9-4.5-1.8-4.6-1.4-7.5-3.2t-4.3-4.1a10.4 10.4 0 0 1 4.1-14.9q3-1.6 7.7-1.8 3.7-.1 7.5 1 3.8 1 6.5 2.7l-3.4 7.3q-2.4-1.6-5.1-2.5-2.8-1-5.6-.9-2.4 0-3.5 1t-1 2.2q0 .7.7 1.6.6.8 2.2 1.5t4.2 1.6q4.8 1.4 7.8 3.2 3 2 4.4 4.2a11 11 0 0 1-4.4 15.7q-3.3 1.8-8.6 2-2.6.1-5.2-.4a29 29 0 0 1-10.2-4Zm47.1-17.3q-.4-4.8.9-8.5 1.2-3.8 3.7-6.5 2.4-2.5 5.7-4 3.2-1.5 7-1.7a22 22 0 0 1 12.7 3.5l-4.3 7.4q-1.8-1.2-3.8-1.9a12 12 0 0 0-4.3-.6 9 9 0 0 0-4.7 1.5 9 9 0 0 0-3.2 4q-1 2.6-.8 6.5a15 15 0 0 0 1.7 6.5q1.5 2.6 3.8 3.8t4.9 1.1q2.3 0 4.1-1 2-.9 3.5-2.4l5.6 6.9a18 18 0 0 1-12.2 5 19 19 0 0 1-18.2-11.2 23 23 0 0 1-2.1-8.4m34.1-1.1q-.3-4.8.8-8.5 1.3-3.7 3.4-6.4a16 16 0 0 1 5.5-4.1q3.1-1.5 6.8-1.6a18 18 0 0 1 13 5q2.7 2.4 4.3 6a24 24 0 0 1 2 8.4q.3 4.8-.8 8.5t-3.4 6.5a16 16 0 0 1-12.2 5.8 18 18 0 0 1-17.4-11.2 25 25 0 0 1-2-8.5Zm9-.3q0 3 1 5.2a12 12 0 0 0 2.1 3.8 8 8 0 0 0 6.7 2.8q1.8 0 3.5-.9t2.7-2.3a11 11 0 0 0 1.6-3.9q.5-2.3.3-5.3t-1-5.3q-.9-2.1-2.2-3.7a8 8 0 0 0-3-2.1 9 9 0 0 0-7.1.2q-1.6.8-2.7 2.3t-1.6 3.8-.4 5.3m34.9 18.5-2.7-38.7 11.2-.4 17 30.5-1.7.5-2.2-31.3 8-.2 2.6 38.6-10.6.3-17.8-31.9 1.8-.4 2.3 32.8zm35.6-32-.6-7.8 29.4-.8.5 7.8-10.3.3 2.2 30.7-8.8.3-2.1-30.8zm37 29.8-2.7-38.5 14.3-.4q4 0 7.3 1.4t5.4 4.2q2 2.8 2.3 6.8t-1.5 6.8a12 12 0 0 1-5 4.3l9.4 14.5-9.7.3-7.8-13.2h-4.2l1 13.5zm7.3-21 4.8-.1q2.7 0 4.2-1.4 1.5-1.2 1.4-3.8t-2-3.7a7 7 0 0 0-4.3-1.1l-4.8.1zm24.7.8q-.3-4.8.8-8.4a16 16 0 0 1 8.9-10.3q3.1-1.4 6.8-1.5a19 19 0 0 1 13 4.9 19 19 0 0 1 4.3 6q1.7 3.7 2 8.3t-.8 8.4q-1.2 3.8-3.4 6.3a16 16 0 0 1-5.4 4.1q-3.2 1.5-6.9 1.6a18 18 0 0 1-17.3-11.1 24 24 0 0 1-2-8.3m9-.3q0 3 1 5.2.8 2.2 2.1 3.7a8 8 0 0 0 3 2.2 9 9 0 0 0 7.2-.2 7 7 0 0 0 2.6-2.3q1.2-1.5 1.7-3.8t.3-5.2a18 18 0 0 0-1-5.2q-.9-2.2-2.2-3.7a8 8 0 0 0-3-2.1 9 9 0 0 0-7.1.2 7 7 0 0 0-2.7 2.2q-1.1 1.5-1.7 3.8t-.3 5.2m34.9 18.4-2.7-38.2 8.7-.2 2.2 30.3 17-.4.5 7.8zm206.5-5.1 11-38.3 8.5-.2 16.5 37.6-9.4.3-3.8-9.5 4.8 2-20.5.5 4.4-1.8-2.4 9.2zm11.8-11c-1.1-1.4-1.7-2.2-3-3.6l16-.4-2.4 3.8-8-19.5h2.6c-2 8-3.1 11.9-5.2 19.7m24.2-8.8q-.4-4.5.9-8.3a17 17 0 0 1 16.4-12 22 22 0 0 1 12.7 3.6l-4.3 7.3a18 18 0 0 0-3.8-1.8q-2-.7-4.3-.7-2.6 0-4.7 1.4a9 9 0 0 0-3.2 4q-1 2.5-.8 6.3.3 3.9 1.7 6.3a10 10 0 0 0 8.7 4.9q2.3 0 4.1-1 2-.8 3.5-2.2l5.6 6.6a19 19 0 0 1-12.2 4.7 20 20 0 0 1-13.7-4.8 19 19 0 0 1-4.5-6 22 22 0 0 1-2.1-8.3m34.1-.8q-.3-4.7 1-8.4a18 18 0 0 1 9.3-10.4q3.3-1.5 7-1.6a21 21 0 0 1 12.7 3.6l-4.3 7.3a18 18 0 0 0-3.8-1.8 12 12 0 0 0-4.2-.7 9 9 0 0 0-7.9 5.3q-1.1 2.7-.9 6.5t1.8 6.3a9 9 0 0 0 8.6 4.8q2.3 0 4.2-.9a14 14 0 0 0 3.5-2.3l5.5 6.7a19 19 0 0 1-12.2 4.7 20 20 0 0 1-13.6-4.9 19 19 0 0 1-4.6-6 22 22 0 0 1-2-8.2Zm38.8 18-2.7-38.2 26.6-.8.5 7.9-17.8.5.5 7.6 15.3-.4.5 7.3-15.2.4.5 7.8 18-.4.6 7.6zm31.2-4.8 3.6-7.5a22 22 0 0 0 12.1 4.2q2 0 3-.5 1.3-.4 1.9-1.2t.5-1.7q0-.7-.7-1.5a7 7 0 0 0-2.2-1.7q-1.6-.8-4.5-1.7-4.6-1.4-7.5-3.2t-4.3-4.1a10 10 0 0 1-.4-10.5q1.4-2.6 4.5-4.3 3-1.6 7.7-1.7 3.7-.2 7.5 1a24 24 0 0 1 6.5 2.8l-3.4 7.2q-2.4-1.5-5.2-2.5-2.7-1-5.6-.9-2.2 0-3.4 1t-1 2.1q0 .9.7 1.6t2.2 1.5l4.2 1.6q4.8 1.4 7.8 3.3t4.4 4a11 11 0 0 1 .4 10.9q-1.5 2.5-4.8 4.3-3.4 1.6-8.6 1.8-2.7 0-5.2-.5a31 31 0 0 1-10.2-3.8m34.4-.9 3.6-7.5q2.6 2 5.9 3 3.2 1.2 6.3 1.1 1.8 0 3-.5t1.8-1.2.5-1.7q0-.7-.7-1.5a7 7 0 0 0-2.2-1.7q-1.6-.8-4.5-1.7-4.6-1.4-7.5-3.2t-4.3-4.1a10 10 0 0 1-.4-10.5q1.4-2.7 4.5-4.3 3-1.6 7.7-1.8 3.7-.2 7.5 1a24 24 0 0 1 6.5 2.8l-3.4 7.3q-2.4-1.6-5.1-2.6-2.8-1-5.7-.8-2.2 0-3.4 1t-1 2.1q0 .9.7 1.6t2.2 1.5 4.2 1.6q4.8 1.4 7.8 3.3t4.4 4a11 11 0 0 1 .4 10.9q-1.5 2.7-4.8 4.3-3.4 1.8-8.6 1.9a31 31 0 0 1-15.4-4.3m47.1-16.5q-.4-4.8.9-8.5a17 17 0 0 1 16.4-12.3 21 21 0 0 1 12.7 3.6l-4.3 7.4q-1.8-1.2-3.8-1.9t-4.3-.6a9 9 0 0 0-4.7 1.5 9 9 0 0 0-3.2 4q-1 2.7-.8 6.5.3 3.9 1.7 6.4 1.5 2.6 3.8 3.7t4.9 1.1q2.3 0 4.1-1 1.9-.8 3.5-2.3l5.5 6.8a19 19 0 0 1-12.2 4.9 20 20 0 0 1-13.6-5 20 20 0 0 1-4.5-6 22 22 0 0 1-2.1-8.3m34.1-1.1q-.3-4.8.8-8.5a18 18 0 0 1 3.4-6.5 16 16 0 0 1 12.3-5.9 18 18 0 0 1 13 5q2.7 2.5 4.3 6.2 1.7 3.7 2 8.5t-.8 8.4q-1.2 3.8-3.4 6.4a16 16 0 0 1-5.4 4.1q-3.2 1.5-6.8 1.6a18 18 0 0 1-13.1-4.9 19 19 0 0 1-4.3-6 24 24 0 0 1-2-8.4m9-.3q0 3 1 5.2.8 2.2 2.1 3.7a8 8 0 0 0 3 2.2 9 9 0 0 0 7.2-.3 7 7 0 0 0 2.7-2.3q1-1.5 1.6-3.8.5-2.3.3-5.3t-1-5.3a12 12 0 0 0-2.2-3.7 8 8 0 0 0-6.6-2.8q-2 0-3.5.9-1.6.8-2.7 2.3a11 11 0 0 0-1.6 3.9q-.6 2.3-.4 5.3Zm34.8 18.1-2.7-39c4.5 0 6.7-.2 11.2-.3l17 30.8-1.7.4-2.2-31.7 8-.4 2.6 39-10.6.4q-9-15.8-17.8-31.8l1.8-.5 2.2 32.8zm35.6-32.3-.6-8 29.4-1.3.5 8.1-10.3.4 2.2 31-8.8.4-2.2-31zm37 29.7q-1.5-19.5-2.7-39.2l14.3-.6q4-.3 7.3 1.2a13 13 0 0 1 7.7 11.3 12 12 0 0 1-6.5 11.6l9.4 14.5-9.7.4-7.8-13.2-4.2.2 1 13.5c-3.6 0-5.3.2-8.8.3m7.3-21.2c1.9 0 2.8 0 4.8-.2q2.6 0 4.2-1.5 1.5-1.3 1.4-4-.2-2.6-2-3.8a7 7 0 0 0-4.3-1l-4.8.2zm24.7.2q-.4-4.7.8-8.7a19 19 0 0 1 3.4-6.7 17 17 0 0 1 12.3-6.3 17 17 0 0 1 13 4.9q2.7 2.5 4.3 6.3 1.7 3.8 2 8.6.4 5-.8 8.7-1.2 3.9-3.4 6.6a16 16 0 0 1-12.2 6 18 18 0 0 1-17.4-10.9 25 25 0 0 1-2-8.5m9-.4q0 3 1 5.3.8 2.2 2.1 3.7t3 2.2 3.6.5 3.5-1 2.7-2.3 1.7-4q.4-2.2.3-5.4-.3-3-1-5.4a12 12 0 0 0-2.2-3.8 8 8 0 0 0-6.6-2.7q-2 0-3.5 1-1.6.8-2.7 2.4-1.1 1.7-1.7 4-.5 2.4-.3 5.5m34.8 17.9-2.7-40 8.8-.5 2.2 32 17-.8.5 8zm203.1-12.5 11-42.9 8.5-.7 16.3 41-9.3.7-3.9-10.2c2 .7 3 1.1 4.8 2l-20.5 1.5 4.4-2.2-2.3 10.2zm11.8-12.7-3-3.9 16-1.2-2.5 4.3-7.9-21 2.5-.3zm24.1-10.9q-.3-5.2 1-9.4 1.2-4 3.6-7.2 2.4-3 5.7-4.8 3.3-1.9 7-2.1a19 19 0 0 1 12.7 3.3c-1.7 3.3-2.5 5-4.3 8.2q-1.7-1-3.8-1.8-2-.6-4.2-.5-2.7.3-4.7 1.9a10 10 0 0 0-3.2 4.5q-1 3-.8 7.1t1.7 6.9q1.5 2.6 3.7 3.9t5 1q2.2-.2 4-1.3 2-1 3.6-2.7l5.5 7.1a18 18 0 0 1-12.2 5.9 18 18 0 0 1-18.2-11.1 25 25 0 0 1-2-9Zm34.2-2.9q-.4-5.1.9-9.3 1.2-4.2 3.7-7.2 2.4-3 5.7-4.9 3.2-1.9 7-2.1a19 19 0 0 1 12.7 3.2l-4.3 8.3q-1.8-1-3.8-1.8-2-.6-4.3-.5-2.6.3-4.7 1.9a10 10 0 0 0-3.2 4.5q-1 3-.8 7.2.3 4.1 1.7 6.9 1.5 2.6 3.8 3.9t4.9 1q2.3-.3 4.1-1.3 1.9-1 3.5-2.7l5.5 7a22 22 0 0 1-5.5 4.2q-3 1.5-6.7 1.8a18 18 0 0 1-18.1-11 26 26 0 0 1-2.1-9M2250 189l-2.7-42.3 26.6-2.4.6 8.6-17.8 1.6.5 8.4 15.2-1.4.5 8.1-15.2 1.4.6 8.6 18-1.6.6 8.5-26.9 2.4Zm31.3-7.3 3.6-8.5q2.5 2 5.8 3 3.3 1.1 6.3.9 1.8-.2 3-.8a5 5 0 0 0 1.8-1.5q.6-.7.6-1.8 0-.8-.7-1.7a7 7 0 0 0-2.2-1.7q-1.6-.9-4.6-1.6-4.5-1.3-7.5-3.1a13 13 0 0 1-4.3-4.3q-1.5-2.4-1.6-5.2-.2-3.4 1.2-6.4 1.5-3 4.5-5t7.8-2.4q3.7-.3 7.5.7t6.4 2.7l-3.4 8.2q-2.4-1.6-5.1-2.5t-5.6-.6q-2.3.2-3.5 1.3-1 1-1 2.4 0 1 .7 1.7.7.8 2.3 1.6 1.5.7 4.2 1.4 4.8 1.4 7.7 3.2t4.5 4.3a12 12 0 0 1 1.7 5.5 12 12 0 0 1-6.2 11.5q-3.2 2-8.6 2.5a27 27 0 0 1-15.3-3.9Zm34.4-3.2 3.6-8.5q2.5 2 5.8 3 3.3 1.1 6.3.9 1.8-.2 3-.8t1.8-1.5.6-1.8-.7-1.7a7 7 0 0 0-2.2-1.7q-1.6-.9-4.6-1.6-4.5-1.2-7.5-3.1a13 13 0 0 1-4.3-4.3q-1.5-2.4-1.6-5.2-.2-3.3 1.2-6.4 1.5-3 4.5-5t7.8-2.4q3.7-.3 7.5.6 3.7 1 6.4 2.8l-3.4 8.2q-2.3-1.6-5.1-2.5t-5.6-.6q-2.3.2-3.4 1.3-1.2 1-1.1 2.4 0 1 .7 1.7.7.8 2.3 1.6 1.5.7 4.2 1.4 4.8 1.4 7.7 3.1 3 2 4.5 4.3a12.3 12.3 0 0 1-4.5 17q-3.2 2.1-8.6 2.6-2.5.3-5.2-.1a26 26 0 0 1-10.1-3.7m47-21.1q-.3-5.2 1-9.4 1.2-4.2 3.6-7.3a19 19 0 0 1 5.7-5q3.3-1.8 7-2.2a19 19 0 0 1 12.7 3.1l-4.3 8.4a16 16 0 0 0-3.8-1.8q-2-.6-4.2-.4-2.7.3-4.7 1.9-2.1 1.6-3.2 4.6t-.9 7.2 1.8 6.9 3.7 3.8 5 1a10 10 0 0 0 4-1.4q2-1 3.6-2.8l5.5 7a22 22 0 0 1-5.6 4.3 18 18 0 0 1-24.8-9 25 25 0 0 1-2-9Zm34.2-3.4q-.4-5.2.8-9.4 1.1-4.2 3.4-7.3a18 18 0 0 1 5.4-4.9 17 17 0 0 1 14-1.4q3.2 1.2 5.9 3.8 2.6 2.6 4.3 6.5t2 9-.8 9.3-3.5 7.2a18 18 0 0 1-5.4 4.9 17 17 0 0 1-19.9-2.3 19 19 0 0 1-4.3-6.4 28 28 0 0 1-2-9Zm8.9-1q.2 3.4 1 5.7t2.2 4q1.3 1.5 3 2a8 8 0 0 0 7.1-.7 8 8 0 0 0 2.7-2.7q1.1-1.8 1.6-4.3.6-2.4.4-5.8-.2-3.2-1.1-5.7c-.9-2.5-1.3-2.9-2.1-3.9a7 7 0 0 0-6.7-2.6q-1.8.2-3.5 1.2a8 8 0 0 0-2.7 2.7q-1 1.8-1.6 4.3a22 22 0 0 0-.3 5.9m34.8 17.5-2.7-42.1 11.2-1.2 17.1 32.2-1.7.6-2.2-34.1 7.9-.8 2.7 42-10.6 1q-9-16.5-17.8-33.4l1.7-.6 2.3 35.5zm35.6-37.4-.5-8.6 29.3-3 .6 8.4-10.3 1.1 2.1 33.3-8.7 1-2.2-33.3zm37 29.5-2.7-41.8 14.4-1.5a15 15 0 0 1 7.3 1q3.3 1.2 5.3 4.2 2.1 2.9 2.4 7.2a13 13 0 0 1-6.6 12.7l9.4 14.8-9.6 1.1-7.8-13.6-4.3.4 1 14.5zm7.3-23.3 4.8-.5a7 7 0 0 0 4.2-1.8q1.5-1.6 1.4-4.3-.1-2.8-1.9-4-1.7-1-4.4-.8l-4.8.5zm24.7-1.2q-.3-5 .8-9.2 1.2-4 3.5-7.2a18 18 0 0 1 12.3-7 16 16 0 0 1 13 4.3q2.6 2.4 4.3 6.2a26 26 0 0 1 2 8.8 27 27 0 0 1-.8 9.1q-1.2 4.2-3.5 7.1-2.2 3-5.4 4.9a17 17 0 0 1-13.9 1.6q-3.3-1-6-3.5a19 19 0 0 1-4.3-6.3 26 26 0 0 1-2-8.8m9-1q.2 3.2 1 5.5t2.2 3.8 3 2a9 9 0 0 0 7.1-.8q1.6-.9 2.7-2.7a13 13 0 0 0 1.6-4.2q.6-2.4.3-5.7-.2-3.2-1-5.5t-2.2-3.8a7 7 0 0 0-3-2 9 9 0 0 0-7.1.8q-1.6.9-2.7 2.6a13 13 0 0 0-1.6 4.3q-.6 2.4-.3 5.7m34.8 16.7-2.7-41.1 8.8-1 2.1 32.7 17-2 .6 8.3zM171.5 308.2l11-42.2 8.5-1 16.4 39.3-9.3 1-3.9-10c2 .7 3 1 4.8 1.8l-20.4 2.2 4.3-2.2-2.3 10.1zm11.8-12.9-3-3.7 16-1.8-2.5 4.3-7.9-20.3c1 0 1.5-.2 2.5-.3zm24.1-11.7q-.3-5 1-9 1.2-4.1 3.6-7.2a20 20 0 0 1 19.4-6.9q3 .7 6 2.5c-1.7 3.3-2.5 5-4.3 8.2q-1.7-1-3.8-1.7t-4.2-.3q-2.7.3-4.7 2-2.1 1.5-3.2 4.4t-.9 7q.3 4.2 1.8 6.7 1.5 2.7 3.7 3.8t5 .8q2.2-.2 4-1.3 2-1.2 3.6-2.8l5.5 6.9a22 22 0 0 1-5.6 4.3 18 18 0 0 1-14 1.2 17 17 0 0 1-6.2-3.6 19 19 0 0 1-4.6-6.2 24 24 0 0 1-2-8.8m34.1-3.8q-.4-5 .9-9.1 1.2-4.1 3.6-7.2a20 20 0 0 1 12.8-7.2 20 20 0 0 1 12.7 2.8l-4.3 8.3q-1.8-1.2-3.8-1.7a11 11 0 0 0-4.3-.3q-2.6.3-4.7 1.9-2 1.6-3.2 4.5-1 3-.8 7c.2 4 .8 5 1.7 6.8a9 9 0 0 0 3.8 3.8q2.2 1.1 4.9.9a10 10 0 0 0 4.1-1.4q1.9-1.1 3.5-2.8l5.5 7a23 23 0 0 1-5.5 4.3 18 18 0 0 1-6.7 1.9q-3.8.4-7.3-.7a17 17 0 0 1-6.3-3.6 19 19 0 0 1-4.5-6.3 24 24 0 0 1-2.1-8.9m38.7 16.8-2.7-41.7 26.6-3 .6 8.5-17.8 2 .5 8.2 15.2-1.7.5 8-15.2 1.7.6 8.6 18-2 .6 8.6zm31.3-7.8 3.6-8.5q2.5 2 5.8 3t6.3.7q1.8-.2 3-.8a5 5 0 0 0 1.8-1.5q.6-.9.5-1.8t-.6-1.7a7 7 0 0 0-2.2-1.7q-1.6-.8-4.6-1.6-4.6-1-7.5-3-3-1.7-4.3-4.1a11 11 0 0 1-1.6-5.1 12 12 0 0 1 5.7-11.3q3-2 7.8-2.5a22 22 0 0 1 13.9 3l-3.4 8.2a20 20 0 0 0-5.1-2.4 14 14 0 0 0-5.6-.5q-2.4.3-3.5 1.4-1 1-1 2.3 0 1 .7 1.7.7.8 2.3 1.5 1.5.8 4.2 1.4a29 29 0 0 1 7.7 3q3 1.8 4.5 4.2 1.4 2.4 1.7 5.5a13 13 0 0 1-6.2 11.6q-3.2 2.3-8.6 2.7-2.5.3-5.2-.1a26 26 0 0 1-10.1-3.6m34.4-3.5 3.6-8.6q2.5 2 5.8 3t6.3.8q1.8-.2 3-.9a5 5 0 0 0 1.8-1.4q.6-.9.6-1.9t-.7-1.7a7 7 0 0 0-2.2-1.7q-1.6-.7-4.6-1.6-4.5-1.1-7.5-3t-4.3-4.2q-1.5-2.3-1.6-5-.1-3.4 1.2-6.4 1.5-3 4.5-5t7.8-2.5a22 22 0 0 1 14 3.2c-1.5 3.2-2.1 4.8-3.5 8.1q-2.4-1.5-5.1-2.4a14 14 0 0 0-5.6-.5q-2.3.2-3.5 1.3-1 1.2-1 2.4 0 1 .7 1.7t2.3 1.5 4.2 1.4q4.8 1.2 7.7 3a13 13 0 0 1 4.5 4.3 12.6 12.6 0 0 1-4.5 17.2q-3.2 2.1-8.6 2.7a26 26 0 0 1-15.4-3.8Zm47-21.6q-.3-5.1 1-9.3 1.2-4.3 3.6-7.3a19 19 0 0 1 12.8-7.1 19 19 0 0 1 12.6 3l-4.3 8.3a16 16 0 0 0-3.8-1.7q-2-.7-4.2-.4a9 9 0 0 0-4.7 1.8q-2.1 1.6-3.2 4.6t-.9 7.2c.2 4.2.8 5.2 1.8 7q1.5 2.5 3.7 3.9 2.4 1.1 5 .9a10 10 0 0 0 4-1.3 16 16 0 0 0 3.6-2.9l5.5 7.2a22 22 0 0 1-5.6 4.3q-3 1.5-6.6 2a17 17 0 0 1-13.6-4.6 20 20 0 0 1-4.6-6.5 26 26 0 0 1-2-9.1Zm34.2-3.4q-.4-5.2.8-9.4 1.1-4.2 3.4-7.2a18 18 0 0 1 12.3-7 16 16 0 0 1 13 4.5q2.7 2.6 4.3 6.5 1.7 3.9 2 9a29 29 0 0 1-.8 9.5q-1.2 4.2-3.4 7.3a18 18 0 0 1-5.5 5 16.5 16.5 0 0 1-19.9-2.6q-2.6-2.6-4.3-6.5a28 28 0 0 1-2-9.1Zm8.9-.9q.2 3.3 1 5.7t2.2 4a7 7 0 0 0 6.6 2.6q2-.1 3.5-1.1a8 8 0 0 0 2.7-2.8q1.1-1.7 1.6-4.3t.3-5.9q0-3.2-1-5.7-.9-2.4-2.2-3.9-1.2-1.6-3-2.2a8 8 0 0 0-7.1.7 8 8 0 0 0-2.7 2.8q-1.1 1.7-1.6 4.3a22 22 0 0 0-.3 5.8m34.9 18.1-2.8-42.5 11.2-1q8.7 16.2 17.1 32.6l-1.7.6-2.2-34.5 7.9-.7 2.7 42.5-10.6 1-17.8-34.1 1.7-.6 2.3 36zm35.5-37.5-.5-8.6 29.3-2.6.6 8.5-10.3 1 2.1 34-8.7.7-2.2-34zm37 30.8-2.7-42.5 14.4-1.3a15 15 0 0 1 7.3 1q3.3 1.5 5.3 4.5 2.1 3 2.4 7.4.2 4.3-1.6 7.6a14 14 0 0 1-5 5.1l9.4 15.6-9.7.8-7.7-14.2-4.3.3 1 15zm7.3-23.7 4.8-.4q2.7-.2 4.2-1.7t1.4-4.4-1.9-4a7 7 0 0 0-4.4-1l-4.8.5zm24.7-.6q-.4-5.2.8-9.3a21 21 0 0 1 3.5-7.2 17 17 0 0 1 12.3-6.8 16 16 0 0 1 13 4.7q2.6 2.6 4.3 6.5 1.5 3.9 2 9 .4 5.2-.9 9.4-1.1 4.2-3.4 7.3t-5.4 4.8a16 16 0 0 1-13.9 1.2q-3.3-1.2-6-3.9-2.6-2.6-4.3-6.6a28 28 0 0 1-2-9Zm9-.8q.2 3.3 1 5.7t2.2 4a8 8 0 0 0 6.6 2.7q1.9 0 3.5-1a8 8 0 0 0 2.7-2.8q1.1-1.8 1.6-4.3t.3-5.8-1-5.7q-.9-2.5-2.2-4a7 7 0 0 0-6.6-2.7q-1.9.3-3.5 1.1a8 8 0 0 0-2.7 2.7 13 13 0 0 0-1.6 4.3q-.6 2.4-.3 5.8m34.8 18.5-2.7-42.3 8.8-.7 2.1 33.6 17-1.4.6 8.6z"/></g></svg>